<svg width="17" height="25" viewBox="0 0 17 25" fill="none" xmlns="http://www.w3.org/2000/svg">
<path fill-rule="evenodd" clip-rule="evenodd" d="M8.5 2.50021C4.082 2.50021 0.5 6.50321 0.5 11.0002C0.5 15.4622 3.053 20.3122 7.037 22.1742C7.49492 22.3886 7.99437 22.4998 8.5 22.4998C9.00563 22.4998 9.50508 22.3886 9.963 22.1742C13.947 20.3122 16.5 15.4622 16.5 11.0002C16.5 6.50321 12.918 2.50021 8.5 2.50021ZM8.5 12.5002C9.03043 12.5002 9.53914 12.2895 9.91421 11.9144C10.2893 11.5394 10.5 11.0306 10.5 10.5002C10.5 9.96978 10.2893 9.46107 9.91421 9.086C9.53914 8.71093 9.03043 8.50021 8.5 8.50021C7.96957 8.50021 7.46086 8.71093 7.08579 9.086C6.71071 9.46107 6.5 9.96978 6.5 10.5002C6.5 11.0306 6.71071 11.5394 7.08579 11.9144C7.46086 12.2895 7.96957 12.5002 8.5 12.5002Z" fill="#E9520E"/>
</svg>
